<svg width="13" height="13" viewBox="0 0 13 13" fill="none" xmlns="http://www.w3.org/2000/svg">
<path d="M7.21819 6.50002L12.8513 0.866917C13.0496 0.668591 13.0496 0.347045 12.8513 0.148744C12.6529 -0.0495561 12.3314 -0.0495814 12.1331 0.148744L6.49999 5.78185L0.866917 0.148744C0.668591 -0.0495814 0.347045 -0.0495814 0.148744 0.148744C-0.0495561 0.34707 -0.0495815 0.668616 0.148744 0.866917L5.78182 6.49999L0.148744 12.1331C-0.0495815 12.3314 -0.0495815 12.653 0.148744 12.8513C0.247895 12.9504 0.377869 13 0.507843 13C0.637818 13 0.767767 12.9504 0.866942 12.8513L6.49999 7.21819L12.1331 12.8513C12.2322 12.9504 12.3622 13 12.4922 13C12.6221 13 12.7521 12.9504 12.8513 12.8513C13.0496 12.6529 13.0496 12.3314 12.8513 12.1331L7.21819 6.50002Z" fill="#1E3F6D"/>
</svg>
