<svg width="60" height="60" viewBox="0 0 60 60" fill="none" xmlns="http://www.w3.org/2000/svg">
<circle cx="30" cy="30" r="30" fill="#B8D6ED"/>
<path d="M46.9444 22.7037H37.4437C38.168 20.9592 38.6 19.1072 38.7222 17.2222C38.7222 15.0416 37.856 12.9502 36.314 11.4082C34.772 9.86627 32.6807 9 30.5 9C28.3193 9 26.228 9.86627 24.686 11.4082C23.144 12.9502 22.2778 15.0416 22.2778 17.2222C22.2778 22.8318 29.6031 34.8842 29.9149 35.394C29.976 35.4944 30.0619 35.5774 30.1644 35.6349C30.2669 35.6925 30.3825 35.7227 30.5 35.7227C30.6175 35.7227 30.7331 35.6925 30.8356 35.6349C30.9381 35.5774 31.024 35.4944 31.0851 35.394C33.2833 31.7586 35.2291 27.9764 36.9085 24.0741H46.9444C47.1262 24.0741 47.3004 24.1463 47.4289 24.2748C47.5574 24.4033 47.6296 24.5775 47.6296 24.7593V43.9444C47.6296 44.1262 47.5574 44.3004 47.4289 44.4289C47.3004 44.5574 47.1262 44.6296 46.9444 44.6296H14.0556C13.8738 44.6296 13.6996 44.5574 13.5711 44.4289C13.4426 44.3004 13.3704 44.1262 13.3704 43.9444V24.7593C13.3704 24.5775 13.4426 24.4033 13.5711 24.2748C13.6996 24.1463 13.8738 24.0741 14.0556 24.0741H21.6817C21.8634 24.0741 22.0377 24.0019 22.1662 23.8734C22.2947 23.7449 22.3669 23.5706 22.3669 23.3889C22.3669 23.2072 22.2947 23.0329 22.1662 22.9044C22.0377 22.7759 21.8634 22.7037 21.6817 22.7037H14.0556C13.5104 22.7037 12.9875 22.9203 12.6021 23.3058C12.2166 23.6913 12 24.2141 12 24.7593V43.9444C12 44.4896 12.2166 45.0125 12.6021 45.3979C12.9875 45.7834 13.5104 46 14.0556 46H46.9444C47.4896 46 48.0125 45.7834 48.3979 45.3979C48.7834 45.0125 49 44.4896 49 43.9444V24.7593C49 24.2141 48.7834 23.6913 48.3979 23.3058C48.0125 22.9203 47.4896 22.7037 46.9444 22.7037ZM35.817 23.121C34.2824 26.7597 32.5061 30.2917 30.5 33.6934C28.7452 30.6854 23.6481 21.5711 23.6481 17.2222C23.6481 15.405 24.37 13.6622 25.655 12.3772C26.94 11.0923 28.6828 10.3704 30.5 10.3704C32.3172 10.3704 34.06 11.0923 35.345 12.3772C36.63 13.6622 37.3519 15.405 37.3519 17.2222C37.3519 18.7543 36.7133 20.8811 35.817 23.121Z" fill="#1E3F6D" stroke="#1E3F6D" stroke-width="0.3"/>
<path d="M22.9628 26.1296H16.111C15.9292 26.1296 15.755 26.2018 15.6265 26.3303C15.498 26.4588 15.4258 26.633 15.4258 26.8148V33.6666C15.4258 33.8483 15.498 34.0226 15.6265 34.1511C15.755 34.2796 15.9292 34.3518 16.111 34.3518H22.9628C23.1445 34.3518 23.3188 34.2796 23.4473 34.1511C23.5758 34.0226 23.648 33.8483 23.648 33.6666V26.8148C23.648 26.633 23.5758 26.4588 23.4473 26.3303C23.3188 26.2018 23.1445 26.1296 22.9628 26.1296ZM22.2776 32.9814H16.7962V27.4999H22.2776V32.9814Z" fill="#1E3F6D" stroke="#1E3F6D" stroke-width="0.3"/>
<path d="M25.7036 36.4074H16.111C15.9292 36.4074 15.755 36.4796 15.6265 36.6081C15.498 36.7366 15.4258 36.9109 15.4258 37.0926C15.4258 37.2743 15.498 37.4486 15.6265 37.5771C15.755 37.7056 15.9292 37.7778 16.111 37.7778H25.7036C25.8853 37.7778 26.0596 37.7056 26.1881 37.5771C26.3166 37.4486 26.3887 37.2743 26.3887 37.0926C26.3887 36.9109 26.3166 36.7366 26.1881 36.6081C26.0596 36.4796 25.8853 36.4074 25.7036 36.4074Z" fill="#1E3F6D" stroke="#1E3F6D" stroke-width="0.3"/>
<path d="M15.4258 41.2037C15.4258 41.3855 15.498 41.5597 15.6265 41.6882C15.755 41.8167 15.9292 41.8889 16.111 41.8889H44.2036C44.3853 41.8889 44.5596 41.8167 44.6881 41.6882C44.8166 41.5597 44.8887 41.3855 44.8887 41.2037C44.8887 41.022 44.8166 40.8477 44.6881 40.7192C44.5596 40.5907 44.3853 40.5186 44.2036 40.5186H16.111C15.9292 40.5186 15.755 40.5907 15.6265 40.7192C15.498 40.8477 15.4258 41.022 15.4258 41.2037Z" fill="#1E3F6D" stroke="#1E3F6D" stroke-width="0.3"/>
<path d="M30.5001 13.7963C29.8226 13.7963 29.1602 13.9972 28.5968 14.3736C28.0334 14.7501 27.5943 15.2851 27.335 15.9111C27.0757 16.5372 27.0079 17.226 27.14 17.8906C27.2722 18.5551 27.5985 19.1656 28.0777 19.6447C28.5568 20.1238 29.1672 20.4501 29.8318 20.5823C30.4963 20.7145 31.1852 20.6466 31.8112 20.3873C32.4372 20.128 32.9723 19.6889 33.3487 19.1255C33.7251 18.5621 33.9261 17.8998 33.9261 17.2222C33.925 16.3139 33.5637 15.4431 32.9214 14.8009C32.2792 14.1586 31.4084 13.7974 30.5001 13.7963ZM30.5001 19.2777C30.0936 19.2777 29.6962 19.1572 29.3581 18.9313C29.0201 18.7055 28.7566 18.3844 28.6011 18.0088C28.4455 17.6332 28.4048 17.2199 28.4841 16.8212C28.5634 16.4224 28.7592 16.0562 29.0466 15.7687C29.3341 15.4812 29.7004 15.2854 30.0991 15.2061C30.4979 15.1268 30.9112 15.1675 31.2868 15.3231C31.6624 15.4787 31.9834 15.7422 32.2093 16.0802C32.4351 16.4182 32.5557 16.8156 32.5557 17.2222C32.5557 17.7674 32.3391 18.2902 31.9536 18.6757C31.5682 19.0612 31.0453 19.2777 30.5001 19.2777Z" fill="#1E3F6D" stroke="#1E3F6D" stroke-width="0.3"/>
<path d="M44.716 37.7778C44.8977 37.7778 45.072 37.7056 45.2005 37.5771C45.329 37.4486 45.4012 37.2743 45.4012 37.0926C45.4012 36.9109 45.329 36.7366 45.2005 36.6081C45.072 36.4796 44.8977 36.4074 44.716 36.4074H39.4078C39.2261 36.4074 39.0518 36.4796 38.9233 36.6081C38.7948 36.7366 38.7227 36.9109 38.7227 37.0926C38.7227 37.2743 38.7948 37.4486 38.9233 37.5771C39.0518 37.7056 39.2261 37.7778 39.4078 37.7778H44.716Z" fill="#1E3F6D" stroke="#1E3F6D" stroke-width="0.3"/>
</svg>
