<svg width="60" height="60" viewBox="0 0 60 60" fill="none" xmlns="http://www.w3.org/2000/svg">
<circle cx="30" cy="30" r="30" fill="#B8D6ED"/>
<path d="M36.8596 12.5935C36.8052 12.5391 36.7406 12.4959 36.6695 12.4665C36.5985 12.437 36.5223 12.4219 36.4453 12.4219H18.8672C18.0905 12.4227 17.3458 12.7317 16.7965 13.2809C16.2473 13.8302 15.9384 14.5748 15.9375 15.3516V44.6484C15.9384 45.4252 16.2473 46.1698 16.7965 46.7191C17.3458 47.2683 18.0905 47.5773 18.8672 47.5781H41.1328C41.9095 47.5773 42.6542 47.2683 43.2035 46.7191C43.7527 46.1698 44.0616 45.4252 44.0625 44.6484V20.0391C44.0625 19.9621 44.0473 19.8859 44.0179 19.8148C43.9885 19.7437 43.9453 19.6791 43.8909 19.6247L36.8596 12.5935ZM37.0312 14.4223L42.062 19.4531H38.7891C38.323 19.4526 37.8762 19.2672 37.5467 18.9377C37.2172 18.6081 37.0318 18.1613 37.0312 17.6953V14.4223ZM42.8906 44.6484C42.8901 45.1145 42.7047 45.5613 42.3752 45.8908C42.0456 46.2203 41.5988 46.4057 41.1328 46.4062H18.8672C18.4012 46.4057 17.9544 46.2203 17.6248 45.8908C17.2953 45.5613 17.1099 45.1145 17.1094 44.6484V15.3516C17.1099 14.8855 17.2953 14.4387 17.6248 14.1092C17.9544 13.7797 18.4012 13.5943 18.8672 13.5938H35.8594V17.6953C35.8602 18.472 36.1692 19.2167 36.7184 19.766C37.2677 20.3152 38.0123 20.6241 38.7891 20.625H42.8906V44.6484Z" fill="#1E3F6D" stroke="#1E3F6D" stroke-width="0.3"/>
<path d="M32.2119 28.0426C32.7769 27.5854 33.1862 26.9643 33.3837 26.2648C33.5811 25.5653 33.5569 24.8219 33.3144 24.1367C33.0718 23.4516 32.6229 22.8585 32.0294 22.439C31.4359 22.0194 30.727 21.7942 30.0002 21.7942C29.2734 21.7942 28.5645 22.0194 27.971 22.439C27.3775 22.8585 26.9286 23.4516 26.6861 24.1367C26.4436 24.8219 26.4194 25.5653 26.6168 26.2648C26.8142 26.9643 27.2236 27.5854 27.7885 28.0426C24.9916 29.0491 22.9688 31.91 22.9688 35.2734C22.9687 35.3612 22.9885 35.448 23.0265 35.5272C23.0645 35.6064 23.1199 35.676 23.1885 35.7309C23.3149 35.8318 26.3211 38.2031 30 38.2031C33.6789 38.2031 36.6851 35.8318 36.8115 35.7309C36.8801 35.676 36.9355 35.6064 36.9735 35.5272C37.0115 35.448 37.0313 35.3612 37.0312 35.2734C37.0312 31.91 35.0084 29.0491 32.2119 28.0426ZM27.6562 25.3124C27.6562 24.8489 27.7937 24.3957 28.0512 24.0103C28.3088 23.6249 28.6748 23.3245 29.1031 23.1471C29.5314 22.9697 30.0026 22.9233 30.4572 23.0137C30.9119 23.1041 31.3295 23.3274 31.6573 23.6551C31.9851 23.9829 32.2083 24.4005 32.2987 24.8552C32.3891 25.3098 32.3427 25.7811 32.1653 26.2093C31.988 26.6376 31.6875 27.0036 31.3021 27.2612C30.9167 27.5187 30.4636 27.6562 30 27.6562C29.3786 27.6555 28.7829 27.4083 28.3435 26.9689C27.9041 26.5295 27.6569 25.9338 27.6562 25.3124ZM30 37.0312C27.2747 37.0312 24.8758 35.4976 24.1466 34.982C24.2855 31.5628 26.8579 28.828 30 28.828C33.1421 28.828 35.7145 31.5628 35.8534 34.982C35.1242 35.4976 32.7253 37.0312 30 37.0312Z" fill="#1E3F6D" stroke="#1E3F6D" stroke-width="0.3"/>
</svg>
