<svg width="20" height="25" viewBox="0 0 20 25" fill="none" xmlns="http://www.w3.org/2000/svg">
<path d="M7.0763 1L3.09678 5.49037M3.09678 5.49037L7.58716 9.46989M3.09678 5.49037L9.46108 5.30471C10.9786 5.2128 12.4947 5.50681 13.8678 6.1593C15.241 6.81179 16.4265 7.8015 17.3137 9.03608C18.2009 10.2707 18.7609 11.7099 18.9415 13.2194C19.122 14.729 18.9172 16.2596 18.3462 17.6686M1.65896 10.897C1.08793 12.306 0.883144 13.8366 1.0637 15.3462C1.24425 16.8557 1.80426 18.2949 2.69147 19.5295C3.57868 20.7641 4.76417 21.7538 6.13734 22.4063C7.5105 23.0588 8.79211 23.3207 10.5441 23.2609C12.2961 23.201 14 23 15.7736 21.5766" stroke="#242424" stroke-width="1.5" stroke-linecap="round" stroke-linejoin="round"/>
</svg>
