<svg width="60" height="60" viewBox="0 0 60 60" fill="none" xmlns="http://www.w3.org/2000/svg">
<circle cx="30" cy="30" r="30" fill="#B8D6ED"/>
<g clip-path="url(#clip0)">
<path d="M43.0312 48.4999H24.2812C22.1281 48.4999 20.375 46.7484 20.375 44.5937V21.1562C20.375 19.0015 22.1281 17.2499 24.2812 17.2499H43.0312C45.1844 17.2499 46.9375 19.0015 46.9375 21.1562V44.5937C46.9375 46.7484 45.1844 48.4999 43.0312 48.4999ZM24.2812 18.8124C22.9891 18.8124 21.9375 19.864 21.9375 21.1562V44.5937C21.9375 45.8859 22.9891 46.9374 24.2812 46.9374H43.0312C44.3234 46.9374 45.375 45.8859 45.375 44.5937V21.1562C45.375 19.864 44.3234 18.8124 43.0312 18.8124H24.2812Z" fill="#1E3F6D"/>
<path d="M18.0313 43.8125H16.4688C14.3156 43.8125 12.5625 42.0609 12.5625 39.9062V14.9062C12.5625 12.7516 14.3156 11 16.4688 11H35.2188C37.3719 11 39.125 12.7516 39.125 14.9062C39.125 15.3375 38.775 15.6875 38.3438 15.6875C37.9125 15.6875 37.5625 15.3375 37.5625 14.9062C37.5625 13.6141 36.5109 12.5625 35.2188 12.5625H16.4688C15.1766 12.5625 14.125 13.6141 14.125 14.9062V39.9062C14.125 41.1984 15.1766 42.25 16.4688 42.25H18.0313C18.4625 42.25 18.8125 42.6 18.8125 43.0312C18.8125 43.4625 18.4625 43.8125 18.0313 43.8125Z" fill="#1E3F6D"/>
<path d="M39.9062 37.5624H27.4062C26.975 37.5624 26.625 37.2124 26.625 36.7812C26.625 36.3499 26.975 35.9999 27.4062 35.9999H39.9062C40.3375 35.9999 40.6875 36.3499 40.6875 36.7812C40.6875 37.2124 40.3375 37.5624 39.9062 37.5624Z" fill="#1E3F6D"/>
<path d="M39.9062 43.8124H27.4062C26.975 43.8124 26.625 43.4624 26.625 43.0311C26.625 42.5999 26.975 42.2499 27.4062 42.2499H39.9062C40.3375 42.2499 40.6875 42.5999 40.6875 43.0311C40.6875 43.4624 40.3375 43.8124 39.9062 43.8124Z" fill="#1E3F6D"/>
<path d="M39.9062 31.3125H27.4062C26.975 31.3125 26.625 30.9625 26.625 30.5312C26.625 30.1 26.975 29.75 27.4062 29.75H39.9062C40.3375 29.75 40.6875 30.1 40.6875 30.5312C40.6875 30.9625 40.3375 31.3125 39.9062 31.3125Z" fill="#1E3F6D"/>
<path d="M39.9062 25.0626H27.4062C26.975 25.0626 26.625 24.7126 26.625 24.2813C26.625 23.8501 26.975 23.5001 27.4062 23.5001H39.9062C40.3375 23.5001 40.6875 23.8501 40.6875 24.2813C40.6875 24.7126 40.3375 25.0626 39.9062 25.0626Z" fill="#1E3F6D"/>
</g>
<defs>
<clipPath id="clip0">
<rect width="37.5" height="37.5" fill="white" transform="translate(11 11)"/>
</clipPath>
</defs>
</svg>
