<svg width="34" height="34" viewBox="0 0 34 34" fill="none" xmlns="http://www.w3.org/2000/svg">
<circle cx="17" cy="17" r="17" fill="#B8D6ED"/>
<path d="M21.9922 10.2866C22.1931 10.0856 22.1931 9.73728 21.9922 9.53631L20.1031 7.64722C19.9021 7.44625 19.5537 7.44625 19.3528 7.64722L7.37514 19.6249C7.17417 19.8258 7.17417 20.1742 7.37514 20.3751L9.26423 22.2642C9.4652 22.4652 9.81354 22.4652 10.0145 22.2642C10.5638 21.7149 11.4481 21.7149 11.9974 22.2642C12.5467 22.8135 12.5467 23.6978 11.9974 24.2471C11.7964 24.4481 11.7964 24.7964 11.9974 24.9974L13.8865 26.8865C14.0874 27.0874 14.4358 27.0874 14.6368 26.8865L26.6144 14.9088C26.8154 14.7079 26.8154 14.3595 26.6144 14.1586L24.7253 12.2695C24.5243 12.0685 24.176 12.0685 23.975 12.2695C23.4257 12.8188 22.5415 12.8188 21.9922 12.2695C21.4428 11.7202 21.4428 10.8359 21.9922 10.2866ZM13.0826 24.5821C13.6855 23.6308 13.5783 22.3446 12.7477 21.514C11.917 20.6833 10.6308 20.5761 9.69296 21.1924L8.51395 20.0134L16.633 11.8943L22.3941 17.6554L14.275 25.7745L13.0826 24.5821ZM24.31 13.3547L25.489 14.5337L23.131 16.8917L17.3699 11.1306L19.7413 8.75923L20.9203 9.93824C20.3174 10.8895 20.4246 12.1757 21.2419 12.9929C22.0725 13.8504 23.3587 13.9576 24.31 13.3547Z" fill="#242424"/>
<path d="M12.6938 19.0754L16.6997 15.0694C16.9007 14.8685 16.9007 14.5201 16.6997 14.3192C16.4988 14.1182 16.1504 14.1182 15.9494 14.3192L11.9435 18.3251C11.7425 18.5261 11.7425 18.8744 11.9435 19.0754C12.1445 19.2764 12.4794 19.2898 12.6938 19.0754Z" fill="#242424"/>
<path d="M17.5715 15.9403L13.5656 19.9463C13.3646 20.1472 13.3646 20.4956 13.5656 20.6965C13.7665 20.8975 14.1149 20.8975 14.3158 20.6965L18.3218 16.6906C18.5228 16.4896 18.5228 16.1413 18.3218 15.9403C18.1208 15.7394 17.7725 15.7394 17.5715 15.9403Z" fill="#242424"/>
<path d="M19.1926 17.5614L15.1867 21.5674C14.9857 21.7683 14.9857 22.1167 15.1867 22.3176C15.3876 22.5186 15.736 22.5186 15.9369 22.3176L19.9429 18.3117C20.1439 18.1107 20.1439 17.7624 19.9429 17.5614C19.7419 17.3605 19.3936 17.3605 19.1926 17.5614Z" fill="#242424"/>
</svg>
